<?xml version="1.0" encoding="utf-8"?>
<!-- Generator: Adobe Illustrator 26.0.1, SVG Export Plug-In . SVG Version: 6.00 Build 0)  -->
<svg version="1.1" xmlns="http://www.w3.org/2000/svg" xmlns:xlink="http://www.w3.org/1999/xlink" x="0px" y="0px"
	 viewBox="0 0 3485.7 1128.1" style="enable-background:new 0 0 3485.7 1128.1;" xml:space="preserve">
<style type="text/css">
	.st0{fill:#FFFFFF;}
	.st1{fill:url(#SVGID_1_);}
	.st2{fill:url(#SVGID_00000072253744018459863270000014008953580589852839_);}
	.st3{fill:url(#SVGID_00000112625284652172657020000018169885893616245680_);}
	.st4{fill:#960704;}
	.st5{fill:url(#SVGID_00000147919794088712601630000018050970987755720595_);}
	
		.st6{clip-path:url(#SVGID_00000153672834821699846360000010830028126139470015_);fill:url(#SVGID_00000068658760942766482730000001944482520176454072_);}
	
		.st7{clip-path:url(#SVGID_00000153672834821699846360000010830028126139470015_);fill:url(#SVGID_00000123407246000290880400000002094571969102584710_);}
	
		.st8{clip-path:url(#SVGID_00000153672834821699846360000010830028126139470015_);fill:url(#SVGID_00000124862172612731624530000000458507402619886782_);}
	
		.st9{clip-path:url(#SVGID_00000153672834821699846360000010830028126139470015_);fill:url(#SVGID_00000078734974919858945950000011115615408210667187_);}
	
		.st10{clip-path:url(#SVGID_00000153672834821699846360000010830028126139470015_);fill:url(#SVGID_00000144329014105951114340000015239515368652796045_);}
	
		.st11{clip-path:url(#SVGID_00000153672834821699846360000010830028126139470015_);fill:url(#SVGID_00000102533232554285176540000010207227448086228623_);}
	
		.st12{clip-path:url(#SVGID_00000153672834821699846360000010830028126139470015_);fill:url(#SVGID_00000096738203891094884210000004548391337727767169_);}
	
		.st13{clip-path:url(#SVGID_00000126292609672414907230000001316081248821846969_);fill:url(#SVGID_00000113349652133658870810000014230560077866571167_);}
	
		.st14{clip-path:url(#SVGID_00000126292609672414907230000001316081248821846969_);fill:url(#SVGID_00000003105119586765069000000015100714886203972521_);}
	
		.st15{clip-path:url(#SVGID_00000126292609672414907230000001316081248821846969_);fill:url(#SVGID_00000055675703531269657910000013757706264108374175_);}
	
		.st16{clip-path:url(#SVGID_00000031894379581767608010000006312199209512789400_);fill:url(#SVGID_00000095318514692471512070000007962706172871668895_);}
	
		.st17{clip-path:url(#SVGID_00000031894379581767608010000006312199209512789400_);fill:url(#SVGID_00000005949283969081954490000001336857755861106111_);}
	.st18{fill:#0C0734;}
	.st19{fill:url(#SVGID_00000079481151361855619880000006194029138383135924_);}
	.st20{fill:url(#SVGID_00000050644044092953704800000010084708964580835723_);}
	.st21{fill:url(#SVGID_00000160178762595834917790000012907156261760201904_);}
	.st22{fill:url(#SVGID_00000043429267207426447140000016041782139099653311_);}
	.st23{fill:url(#SVGID_00000062908709301678541550000006829074644550482069_);}
	.st24{fill:url(#SVGID_00000000181373309011727950000008737720713607968641_);}
	
		.st25{clip-path:url(#SVGID_00000036244741053749352790000000989603180249507477_);fill:url(#SVGID_00000032634009400579557130000013318436995889946244_);}
	
		.st26{clip-path:url(#SVGID_00000036244741053749352790000000989603180249507477_);fill:url(#SVGID_00000042700956171876720050000010205605225944684987_);}
	
		.st27{clip-path:url(#SVGID_00000036244741053749352790000000989603180249507477_);fill:url(#SVGID_00000146477708233495324000000014899871192050384001_);}
	
		.st28{clip-path:url(#SVGID_00000036244741053749352790000000989603180249507477_);fill:url(#SVGID_00000034796349699107564950000017025163022795183514_);}
	
		.st29{clip-path:url(#SVGID_00000036244741053749352790000000989603180249507477_);fill:url(#SVGID_00000038404301528164946310000000249671822126914747_);}
	
		.st30{clip-path:url(#SVGID_00000036244741053749352790000000989603180249507477_);fill:url(#SVGID_00000056392957423564341490000015181852699049500802_);}
	
		.st31{clip-path:url(#SVGID_00000036244741053749352790000000989603180249507477_);fill:url(#SVGID_00000131339430827881702760000015220160561670670731_);}
	
		.st32{clip-path:url(#SVGID_00000154415528669453775730000006941156198134276513_);fill:url(#SVGID_00000161600424451431720500000000408486220859114677_);}
	
		.st33{clip-path:url(#SVGID_00000154415528669453775730000006941156198134276513_);fill:url(#SVGID_00000021099357651526503300000017169583312736542081_);}
	
		.st34{clip-path:url(#SVGID_00000154415528669453775730000006941156198134276513_);fill:url(#SVGID_00000101104181075224791910000016726178266723173049_);}
	
		.st35{clip-path:url(#SVGID_00000107558126101030835780000007695737564168974484_);fill:url(#SVGID_00000165228726245693374970000007387090249833839248_);}
	
		.st36{clip-path:url(#SVGID_00000107558126101030835780000007695737564168974484_);fill:url(#SVGID_00000018951744053857009590000014675765986583838344_);}
	.st37{fill:url(#SVGID_00000101068598531362935810000007238722662911117482_);}
	.st38{fill:url(#SVGID_00000026858588227785375810000001308543025185404070_);}
	.st39{fill:url(#SVGID_00000183225220173155061260000002736753608252442518_);}
	.st40{fill:url(#SVGID_00000119091348407931056870000012917012162625290150_);}
	.st41{opacity:0.31;}
	
		.st42{clip-path:url(#SVGID_00000057840417067434859820000017716018119627399331_);fill:url(#SVGID_00000093861673994746152670000016417544725626483358_);}
	
		.st43{clip-path:url(#SVGID_00000057840417067434859820000017716018119627399331_);fill:url(#SVGID_00000163780050551254292470000004776896963178259854_);}
	
		.st44{clip-path:url(#SVGID_00000057840417067434859820000017716018119627399331_);fill:url(#SVGID_00000150809846641507344030000016545021088194516375_);}
	
		.st45{clip-path:url(#SVGID_00000057840417067434859820000017716018119627399331_);fill:url(#SVGID_00000060711393218498390960000006543799828560711848_);}
	
		.st46{clip-path:url(#SVGID_00000057840417067434859820000017716018119627399331_);fill:url(#SVGID_00000114070932471209829690000011321694597912981940_);}
	
		.st47{clip-path:url(#SVGID_00000057840417067434859820000017716018119627399331_);fill:url(#SVGID_00000059305380446496634640000011185800624822810773_);}
	
		.st48{clip-path:url(#SVGID_00000057840417067434859820000017716018119627399331_);fill:url(#SVGID_00000060747810242680349550000010618466942624758938_);}
	.st49{opacity:0.5;}
	
		.st50{clip-path:url(#SVGID_00000132087228541808776260000001848750072920890000_);fill:url(#SVGID_00000178897232543977561910000017856252499621383586_);}
	
		.st51{clip-path:url(#SVGID_00000132087228541808776260000001848750072920890000_);fill:url(#SVGID_00000130645865307133581640000017475617186657943999_);}
	
		.st52{clip-path:url(#SVGID_00000132087228541808776260000001848750072920890000_);fill:url(#SVGID_00000097469817958867790370000011329180355397014158_);}
	
		.st53{clip-path:url(#SVGID_00000139262366360286398730000009211055039321733526_);fill:url(#SVGID_00000038391209572152091420000000411320824502838690_);}
	
		.st54{clip-path:url(#SVGID_00000139262366360286398730000009211055039321733526_);fill:url(#SVGID_00000149379706329219343490000008496165021473667262_);}
	.st55{fill:#1B4D77;}
	.st56{fill:#0F0F0F;}
	.st57{fill:url(#SVGID_00000176738547124398078160000008758911731417576355_);}
	.st58{fill:url(#SVGID_00000093876426844395329790000002474387346887852447_);}
	.st59{fill:url(#SVGID_00000006681298696838696660000014940201073519360698_);}
	.st60{fill:url(#SVGID_00000062882084003658237960000003445472282056952989_);}
	
		.st61{clip-path:url(#SVGID_00000106115361045116412630000006306300080071913148_);fill:url(#SVGID_00000130611967988823947610000014810554019423913636_);}
	
		.st62{clip-path:url(#SVGID_00000106115361045116412630000006306300080071913148_);fill:url(#SVGID_00000131344936331346355930000009196829412811338419_);}
	
		.st63{clip-path:url(#SVGID_00000106115361045116412630000006306300080071913148_);fill:url(#SVGID_00000139973036275696992050000007145635727680471479_);}
	
		.st64{clip-path:url(#SVGID_00000106115361045116412630000006306300080071913148_);fill:url(#SVGID_00000023999496780051248290000003899321786855713704_);}
	
		.st65{clip-path:url(#SVGID_00000106115361045116412630000006306300080071913148_);fill:url(#SVGID_00000008106936809904745750000017513849498925872011_);}
	
		.st66{clip-path:url(#SVGID_00000106115361045116412630000006306300080071913148_);fill:url(#SVGID_00000062174541850015298710000013458985628182704276_);}
	
		.st67{clip-path:url(#SVGID_00000106115361045116412630000006306300080071913148_);fill:url(#SVGID_00000160158878468512642040000016766997532144472223_);}
	
		.st68{clip-path:url(#SVGID_00000088835063429649413280000008762487237682443455_);fill:url(#SVGID_00000104674195503481851020000006400541271222983608_);}
	
		.st69{clip-path:url(#SVGID_00000088835063429649413280000008762487237682443455_);fill:url(#SVGID_00000007408065918672965240000002249522857430877066_);}
	
		.st70{clip-path:url(#SVGID_00000088835063429649413280000008762487237682443455_);fill:url(#SVGID_00000011748404581105371040000002329006579389278610_);}
	
		.st71{clip-path:url(#SVGID_00000137842607056808844310000004015685997459579781_);fill:url(#SVGID_00000178884015421189866110000004189558332758009480_);}
	
		.st72{clip-path:url(#SVGID_00000137842607056808844310000004015685997459579781_);fill:url(#SVGID_00000148644841253077879700000008085082304207649215_);}
	.st73{fill:url(#SVGID_00000046329376441577632170000011763757820655887797_);}
	.st74{fill:url(#SVGID_00000092457037757775028000000017630013184170699701_);}
	.st75{fill:url(#SVGID_00000162353758488850590690000002528045571863136397_);}
	.st76{fill:url(#SVGID_00000020363029816510864090000017433642915153631396_);}
	
		.st77{clip-path:url(#SVGID_00000128458786786162624980000008915848407485565093_);fill:url(#SVGID_00000064323330678425271820000007126012825196529312_);}
	
		.st78{clip-path:url(#SVGID_00000128458786786162624980000008915848407485565093_);fill:url(#SVGID_00000135687543194538569600000001888347516171857855_);}
	
		.st79{clip-path:url(#SVGID_00000128458786786162624980000008915848407485565093_);fill:url(#SVGID_00000078040548468823239070000004488791970444264883_);}
	
		.st80{clip-path:url(#SVGID_00000128458786786162624980000008915848407485565093_);fill:url(#SVGID_00000002342019968707845820000009619630357589831600_);}
	
		.st81{clip-path:url(#SVGID_00000128458786786162624980000008915848407485565093_);fill:url(#SVGID_00000096776321608699355370000002976877339634800550_);}
	
		.st82{clip-path:url(#SVGID_00000128458786786162624980000008915848407485565093_);fill:url(#SVGID_00000137841900894652118270000008501584809183543987_);}
	
		.st83{clip-path:url(#SVGID_00000128458786786162624980000008915848407485565093_);fill:url(#SVGID_00000145765562382305044920000009668963087808075926_);}
	
		.st84{clip-path:url(#SVGID_00000080904196674524875180000014036642357255876287_);fill:url(#SVGID_00000073722782703756368490000006330539080231979958_);}
	
		.st85{clip-path:url(#SVGID_00000080904196674524875180000014036642357255876287_);fill:url(#SVGID_00000084511052317959699950000015357775244715968447_);}
	
		.st86{clip-path:url(#SVGID_00000080904196674524875180000014036642357255876287_);fill:url(#SVGID_00000098215149141487554190000016358224719138032783_);}
	
		.st87{clip-path:url(#SVGID_00000113335696702652547900000010538198178217765040_);fill:url(#SVGID_00000062163889412426165570000015974750751643309710_);}
	
		.st88{clip-path:url(#SVGID_00000113335696702652547900000010538198178217765040_);fill:url(#SVGID_00000138558413965092369140000015200758091885640617_);}
</style>
<g id="Layer_46">
</g>
<g id="Airstrike_Half-Tone_Regular">
	<g>
		<linearGradient id="SVGID_1_" gradientUnits="userSpaceOnUse" x1="351.5495" y1="52.7548" x2="651.8198" y2="519.4161">
			<stop  offset="0" style="stop-color:#151584"/>
			<stop  offset="0.8324" style="stop-color:#2D5480"/>
		</linearGradient>
		<path class="st1" d="M323.1,748.6c22.4-29.4,42.2-53.4,55-68.6c275.9-322.8,637.1-455.8,637.1-455.8
			C599.7,208.6,386.7,370,386.7,370L59.2,209.1c385-92.8,712.1-107.2,952.5-95.8c45.8,1.4,93,6.1,138.5,12.5
			C876.7,20.7,624,9.2,624,9.2S313.8,23.2,8.7,163.2c0,0,33.6,284.7,232.3,573.8c-34.4,105.9-51.8,231.6-51.8,231.6
			c22.7-56.7,60.2-117.4,97-169.7c0.1,0.2,0.3,0.4,0.4,0.6C298.5,782.1,310.7,765.1,323.1,748.6z"/>
		
			<linearGradient id="SVGID_00000084493980629377888190000009973429895753979052_" gradientUnits="userSpaceOnUse" x1="376.1471" y1="-189.37" x2="1396.0839" y2="830.5668">
			<stop  offset="0.3296" style="stop-color:#890606"/>
			<stop  offset="0.9032" style="stop-color:#940704"/>
			<stop  offset="1" style="stop-color:#960704"/>
		</linearGradient>
		<path style="fill:url(#SVGID_00000084493980629377888190000009973429895753979052_);" d="M1038.4,327.3c-2.3,1.1-3.6,1.8-3.6,1.8
			l0,0c-73.5,37.2-125.2,67.4-132.5,71.7C674,542.8,579.5,681.3,579.5,681.3s244.7-35.7,487.1-44.2
			c65.8-115.4,106.9-224.5,132.1-309C1302.1,254,1415.8,183,1415.8,183c-59.4,11.6-130.5,36.4-195.1,62.3c0.1-0.3,0.2-0.7,0.2-1
			C1154.5,270.9,1091.1,300.7,1038.4,327.3z"/>
		
			<linearGradient id="SVGID_00000034785906647892749730000001540212843749721772_" gradientUnits="userSpaceOnUse" x1="286.2816" y1="14.4581" x2="997.8204" y2="1096.1125">
			<stop  offset="0.3296" style="stop-color:#890606"/>
			<stop  offset="0.9032" style="stop-color:#940704"/>
			<stop  offset="1" style="stop-color:#960704"/>
		</linearGradient>
		<path style="fill:url(#SVGID_00000034785906647892749730000001540212843749721772_);" d="M1040.9,719.4c0,0,0.1-0.1,0.1-0.1
			c-30.5,6.8-62.2,14.3-95.2,22.5c-39.8,10.7-78.9,21.5-117.3,32.3c-6.5,1.8-10.1,2.8-10.1,2.8v0c-32.2,9.1-64,18.3-94.8,27.3
			c0,0,0,0,0,0c-125,36.8-236.9,72.2-324,100.7c68.9,71.8,150.2,140.3,246.4,200.8c135.2-84.9,241-185.8,324-289.4
			c119-73.4,231.3-129.3,231.3-129.3C1153.1,694.5,1096.1,706.5,1040.9,719.4z"/>
		<path class="st4" d="M1038.4,327.3c-2.3,1.1-3.6,1.8-3.6,1.8l0,0c-73.5,37.2-125.2,67.4-132.5,71.7
			C674,542.8,579.5,681.3,579.5,681.3s244.7-35.7,487.1-44.2c65.8-115.4,106.9-224.5,132.1-309C1302.1,254,1415.8,183,1415.8,183
			c-59.4,11.6-130.5,36.4-195.1,62.3c0.1-0.3,0.2-0.7,0.2-1C1154.5,270.9,1091.1,300.7,1038.4,327.3z"/>
		
			<linearGradient id="SVGID_00000012464041540185583800000000538974394872519089_" gradientUnits="userSpaceOnUse" x1="713.7059" y1="676.677" x2="896.0727" y2="927.6833">
			<stop  offset="0.4302" style="stop-color:#890606"/>
			<stop  offset="0.9177" style="stop-color:#940704"/>
			<stop  offset="1" style="stop-color:#960704"/>
		</linearGradient>
		<path style="fill:url(#SVGID_00000012464041540185583800000000538974394872519089_);" d="M1040.9,719.4c0,0,0.1-0.1,0.1-0.1
			c-30.5,6.8-62.2,14.3-95.2,22.5c-39.8,10.7-78.9,21.5-117.3,32.3c-6.5,1.8-10.1,2.8-10.1,2.8v0c-32.2,9.1-64,18.3-94.8,27.3
			c0,0,0,0,0,0c-125,36.8-236.9,72.2-324,100.7c68.9,71.8,150.2,140.3,246.4,200.8c135.2-84.9,241-185.8,324-289.4
			c119-73.4,231.3-129.3,231.3-129.3C1153.1,694.5,1096.1,706.5,1040.9,719.4z"/>
		<g class="st41">
			<defs>
				<path id="SVGID_00000028304399259825138720000012396043810535407786_" class="st41" d="M323.1,748.5
					c22.4-29.4,42.2-53.4,55-68.6c275.9-322.8,637.1-455.8,637.1-455.8c-415.5-15.7-628.5,145.7-628.5,145.7L59.3,209
					c385-92.8,712.1-107.2,952.5-95.8c45.8,1.4,93,6.1,138.5,12.5C876.7,20.6,624,9.1,624,9.1S313.8,23.1,8.8,163.1
					c0,0,33.6,284.7,232.3,573.8c-34.4,105.9-51.8,231.6-51.8,231.6c22.7-56.7,60.2-117.4,97-169.7c0.1,0.2,0.3,0.4,0.4,0.6
					C298.5,782,310.7,765,323.1,748.5z"/>
			</defs>
			<clipPath id="SVGID_00000181796501505467656240000002033815833478165645_">
				<use xlink:href="#SVGID_00000028304399259825138720000012396043810535407786_"  style="overflow:visible;"/>
			</clipPath>
			
				<linearGradient id="SVGID_00000031196364670646625620000014224217270262410638_" gradientUnits="userSpaceOnUse" x1="196.1338" y1="698.1472" x2="417.9893" y2="296.512">
				<stop  offset="0" style="stop-color:#FFFFFF"/>
				<stop  offset="1" style="stop-color:#FFFFFF;stop-opacity:0"/>
			</linearGradient>
			
				<path style="clip-path:url(#SVGID_00000181796501505467656240000002033815833478165645_);fill:url(#SVGID_00000031196364670646625620000014224217270262410638_);" d="
				M276.9,691.8c22.4-29.4,42.2-53.4,55-68.6C607.8,300.5,969,167.5,969,167.5c-415.5-15.7-628.5,145.7-628.5,145.7L13,152.4
				C398,59.5,725.1,45.2,965.6,56.5c45.8,1.4,93,6.1,138.5,12.5C830.5-36.1,577.8-47.6,577.8-47.6S267.6-33.5-37.5,106.5
				c0,0,33.6,284.7,232.3,573.8C160.5,786.2,143,911.9,143,911.9c22.7-56.7,60.2-117.4,97-169.7c0.1,0.2,0.3,0.4,0.4,0.6
				C252.3,725.3,264.5,708.4,276.9,691.8z"/>
			
				<linearGradient id="SVGID_00000070826285290606005480000005495068525783051403_" gradientUnits="userSpaceOnUse" x1="623.399" y1="625.0817" x2="594.7123" y2="388.4154">
				<stop  offset="0" style="stop-color:#FFFFFF"/>
				<stop  offset="1" style="stop-color:#FFFFFF;stop-opacity:0"/>
			</linearGradient>
			
				<path style="clip-path:url(#SVGID_00000181796501505467656240000002033815833478165645_);fill:url(#SVGID_00000070826285290606005480000005495068525783051403_);" d="
				M226.8,597.6c27.3-25,50.9-45.1,66.2-57.8c328.5-269,707.5-336.2,707.5-336.2c-406.2-88.8-644.4,32.6-644.4,32.6L62.2,20
				C457.5-3.4,782,40.1,1016.7,93.7c44.8,9.4,90.5,22.4,134.1,36.8C900.1-21.3,653.3-77.2,653.3-77.2S345.5-118,20.6-34
				c0,0-17.2,286.2,127.5,605.8C95.5,670,56.2,790.6,56.2,790.6c32.4-51.8,80-104.9,125.4-149.9c0.1,0.2,0.2,0.4,0.3,0.6
				C196.6,626.2,211.6,611.7,226.8,597.6z"/>
			
				<linearGradient id="SVGID_00000065756221657391830060000004927496150020450470_" gradientUnits="userSpaceOnUse" x1="678.281" y1="708.7202" x2="900.14" y2="307.0784" gradientTransform="matrix(0.9832 0.1824 -0.1824 0.9832 -530.3535 -249.2328)">
				<stop  offset="0" style="stop-color:#FFFFFF"/>
				<stop  offset="1" style="stop-color:#FFFFFF;stop-opacity:0"/>
			</linearGradient>
			
				<path style="clip-path:url(#SVGID_00000181796501505467656240000002033815833478165645_);fill:url(#SVGID_00000065756221657391830060000004927496150020450470_);" d="
				M87.8,579.8c27.4-24.8,51.2-44.8,66.6-57.4C484.6,255.4,864,190.6,864,190.6c-405.6-91.3-644.6,28.6-644.6,28.6L-73.2,1.3
				c395.5-21,719.7,24.5,954,79.5c44.8,9.7,90.4,23,133.9,37.6C764.9-34.9,518.5-92.3,518.5-92.3s-307.6-42.7-633,39.3
				c0,0-18.9,286.1,123.8,606.6C-43.9,651.4-84,771.7-84,771.7c32.7-51.6,80.6-104.4,126.3-149.1c0.1,0.2,0.2,0.4,0.3,0.6
				C57.5,608.3,72.6,593.8,87.8,579.8z"/>
			
				<linearGradient id="SVGID_00000098217657126143206070000006096835696091443115_" gradientUnits="userSpaceOnUse" x1="491.4353" y1="-117.2249" x2="420.6711" y2="41.5166">
				<stop  offset="0" style="stop-color:#FFFFFF"/>
				<stop  offset="1" style="stop-color:#FFFFFF;stop-opacity:0"/>
			</linearGradient>
			
				<path style="clip-path:url(#SVGID_00000181796501505467656240000002033815833478165645_);fill:url(#SVGID_00000098217657126143206070000006096835696091443115_);" d="
				M34.2,642.9c27.4-24.8,51.2-44.8,66.6-57.4c330.2-267,709.6-331.9,709.6-331.9c-405.6-91.3-644.6,28.6-644.6,28.6L-126.8,64.4
				c395.5-21,719.7,24.5,954,79.5c44.8,9.7,90.4,23,133.9,37.6C711.3,28.2,464.9-29.2,464.9-29.2S157.4-72-168.1,10
				c0,0-18.9,286.1,123.8,606.6c-53.1,97.9-93.2,218.3-93.2,218.3c32.7-51.6,80.6-104.4,126.3-149.2c0.1,0.2,0.2,0.4,0.3,0.6
				C3.9,671.4,19,656.9,34.2,642.9z"/>
			
				<linearGradient id="SVGID_00000070115318980859258020000011353788555392015240_" gradientUnits="userSpaceOnUse" x1="-129.6137" y1="-143.2442" x2="-200.3804" y2="15.5028" gradientTransform="matrix(0.9909 -0.1344 0.1344 0.9909 386.1713 68.1103)">
				<stop  offset="0" style="stop-color:#FFFFFF"/>
				<stop  offset="1" style="stop-color:#FFFFFF;stop-opacity:0"/>
			</linearGradient>
			
				<path style="clip-path:url(#SVGID_00000181796501505467656240000002033815833478165645_);fill:url(#SVGID_00000070115318980859258020000011353788555392015240_);" d="
				M-112.4,758.3c23.8-28.3,44.7-51.3,58.3-65.8c291.3-309,658.5-424.3,658.5-424.3c-414.2-35.9-634.9,115-634.9,115l-319.3-176.6
				c389.1-74,716.4-72.5,956-49.4c45.7,3.6,92.6,10.6,137.7,19.3C475.9,58.1,224,34.4,224,34.4s-310.5-1-622,124
				c0,0,19.7,286,204.2,584.4c-39.5,104.1-63,228.8-63,228.8c25.4-55.5,65.9-114.3,105.1-164.8c0.1,0.2,0.2,0.4,0.4,0.6
				C-138.7,790.6-125.6,774.2-112.4,758.3z"/>
			
				<linearGradient id="SVGID_00000145749816230246008000000009616672235292958106_" gradientUnits="userSpaceOnUse" x1="-73.7653" y1="371.8845" x2="84.0117" y2="76.4106">
				<stop  offset="0" style="stop-color:#FFFFFF"/>
				<stop  offset="1" style="stop-color:#FFFFFF;stop-opacity:0"/>
			</linearGradient>
			
				<path style="clip-path:url(#SVGID_00000181796501505467656240000002033815833478165645_);fill:url(#SVGID_00000145749816230246008000000009616672235292958106_);" d="
				M-218.1,698.6c23.8-28.3,44.7-51.3,58.3-65.8c291.3-309,658.5-424.2,658.5-424.2c-414.2-35.9-634.9,115-634.9,115L-455.5,147
				c389.1-74,716.4-72.5,956-49.4c45.7,3.6,92.6,10.6,137.7,19.2C370.2-1.6,118.3-25.3,118.3-25.3s-310.5-1-622,124
				c0,0,19.7,286,204.2,584.4c-39.5,104.1-63,228.8-63,228.8c25.4-55.5,65.9-114.3,105.1-164.8c0.1,0.2,0.2,0.4,0.4,0.6
				C-244.4,730.9-231.4,714.5-218.1,698.6z"/>
			
				<linearGradient id="SVGID_00000156552158266597450160000006386023322088076725_" gradientUnits="userSpaceOnUse" x1="-690.449" y1="-230.7114" x2="-761.2162" y2="-71.9634" gradientTransform="matrix(0.9706 -0.2406 0.2406 0.9706 691.8782 61.8219)">
				<stop  offset="0" style="stop-color:#FFFFFF"/>
				<stop  offset="1" style="stop-color:#FFFFFF;stop-opacity:0"/>
			</linearGradient>
			
				<path style="clip-path:url(#SVGID_00000181796501505467656240000002033815833478165645_);fill:url(#SVGID_00000156552158266597450160000006386023322088076725_);" d="
				M-294.7,851.9c20.6-30.7,38.9-55.8,50.8-71.7C12.4,441.5,365,287.3,365,287.3c-415.7,9-618.7,182.9-618.7,182.9l-336.5-141.1
				c378.8-115.6,704.4-149.4,945.1-152.4c45.8-1.4,93.2,0.6,139,4.3C214.6,92.3-38.3,95.8-38.3,95.8s-308.8,32.5-605,190.4
				c0,0,50.5,282.2,266.1,559c-28,107.8-38,234.3-38,234.3c19.3-57.9,53.1-120.8,86.7-175.2c0.2,0.2,0.3,0.3,0.4,0.5
				C-317.3,886.8-306.1,869.1-294.7,851.9z"/>
		</g>
		<g class="st49">
			<defs>
				<path id="SVGID_00000144339500191168612890000001808188061470850987_" class="st49" d="M1038.4,327.3c-2.3,1.1-3.6,1.8-3.6,1.8
					l0,0c-73.5,37.2-125.2,67.4-132.5,71.7C674,542.8,579.5,681.3,579.5,681.3s244.7-35.7,487.1-44.2
					c65.8-115.4,106.9-224.5,132.1-309C1302.1,254,1415.8,183,1415.8,183c-59.4,11.6-130.5,36.4-195.1,62.3c0.1-0.3,0.2-0.7,0.2-1
					C1154.5,270.9,1091.1,300.7,1038.4,327.3z"/>
			</defs>
			<clipPath id="SVGID_00000015330036606473306100000006481604663579476899_">
				<use xlink:href="#SVGID_00000144339500191168612890000001808188061470850987_"  style="overflow:visible;"/>
			</clipPath>
			
				<linearGradient id="SVGID_00000049215974808405507510000000064079280400710808_" gradientUnits="userSpaceOnUse" x1="218.6492" y1="-255.7664" x2="930.2016" y2="825.9086" gradientTransform="matrix(0.9918 -0.1276 0.1276 0.9918 378.0107 186.0573)">
				<stop  offset="0" style="stop-color:#FFFFFF"/>
				<stop  offset="0.9347" style="stop-color:#FFFFFF;stop-opacity:6.526256e-02"/>
				<stop  offset="1" style="stop-color:#FFFFFF;stop-opacity:0"/>
			</linearGradient>
			
				<path style="clip-path:url(#SVGID_00000015330036606473306100000006481604663579476899_);fill:url(#SVGID_00000049215974808405507510000000064079280400710808_);" d="
				M1080.4,366.9c-2.1,1.4-3.4,2.3-3.4,2.3l0,0c-68.1,46.2-115.5,82.8-122.3,88.1c-208.2,170-284.3,319.3-284.3,319.3
				s238.2-66.7,477.5-106c50.6-122.8,77.3-236.3,91.6-323.3c93.1-86.7,196.8-171.6,196.8-171.6c-57.4,19.1-124.8,52.7-185.6,86.7
				c0-0.3,0.1-0.7,0.1-1C1188.4,296.1,1129.2,333.9,1080.4,366.9z"/>
			
				<linearGradient id="SVGID_00000032615203261679786100000016670589717209853078_" gradientUnits="userSpaceOnUse" x1="321.0858" y1="-229.7969" x2="1032.635" y2="851.8734" gradientTransform="matrix(0.9918 -0.1276 0.1276 0.9918 378.0107 186.0573)">
				<stop  offset="0" style="stop-color:#FFFFFF"/>
				<stop  offset="0.9347" style="stop-color:#FFFFFF;stop-opacity:6.526256e-02"/>
				<stop  offset="1" style="stop-color:#FFFFFF;stop-opacity:0"/>
			</linearGradient>
			
				<path style="clip-path:url(#SVGID_00000015330036606473306100000006481604663579476899_);fill:url(#SVGID_00000032615203261679786100000016670589717209853078_);" d="
				M1185.3,379.6c-2.1,1.4-3.4,2.3-3.4,2.3l0,0c-68.1,46.2-115.5,82.8-122.3,88.1c-208.2,170-284.3,319.3-284.3,319.3
				s238.2-66.7,477.5-106c50.6-122.8,77.3-236.3,91.6-323.3c93.1-86.7,196.8-171.6,196.8-171.6c-57.4,19.1-124.8,52.7-185.6,86.7
				c0-0.3,0.1-0.7,0.1-1C1293.3,308.8,1234.2,346.5,1185.3,379.6z"/>
			
				<linearGradient id="SVGID_00000110438350456404265670000017350114767576554376_" gradientUnits="userSpaceOnUse" x1="423.5165" y1="-203.8351" x2="1135.0707" y2="877.8427" gradientTransform="matrix(0.9918 -0.1276 0.1276 0.9918 378.0107 186.0573)">
				<stop  offset="0" style="stop-color:#FFFFFF"/>
				<stop  offset="0.9347" style="stop-color:#FFFFFF;stop-opacity:6.526256e-02"/>
				<stop  offset="1" style="stop-color:#FFFFFF;stop-opacity:0"/>
			</linearGradient>
			
				<path style="clip-path:url(#SVGID_00000015330036606473306100000006481604663579476899_);fill:url(#SVGID_00000110438350456404265670000017350114767576554376_);" d="
				M1290.2,392.3c-2.1,1.4-3.4,2.3-3.4,2.3l0,0c-68.1,46.2-115.5,82.8-122.3,88.1c-208.2,170-284.3,319.3-284.3,319.3
				s238.2-66.7,477.5-106c50.6-122.8,77.3-236.3,91.6-323.3c93.1-86.7,196.8-171.6,196.8-171.6c-57.4,19.1-124.8,52.7-185.6,86.7
				c0-0.3,0.1-0.7,0.1-1C1398.2,321.5,1339.1,359.2,1290.2,392.3z"/>
		</g>
		<g class="st49">
			<defs>
				<path id="SVGID_00000083079735967791211600000017221996777682850234_" class="st49" d="M1080.8,706.5c0,0,0.1-0.1,0.1-0.1
					c-30.5,6.8-62.2,14.3-95.2,22.5c-39.8,10.7-78.9,21.5-117.3,32.3c-6.5,1.8-10.1,2.8-10.1,2.8v0c-32.2,9.1-64,18.3-94.8,27.3
					c0,0,0,0,0,0c-125,36.8-236.9,72.2-324,100.7c68.9,71.8,150.2,140.3,246.4,200.8c135.2-84.9,241-185.8,324-289.4
					c119-73.4,231.3-129.3,231.3-129.3C1193.1,681.6,1136,693.6,1080.8,706.5z"/>
			</defs>
			<clipPath id="SVGID_00000164515872796516837730000013280343428486859452_">
				<use xlink:href="#SVGID_00000083079735967791211600000017221996777682850234_"  style="overflow:visible;"/>
			</clipPath>
			
				<linearGradient id="SVGID_00000016044127898662269940000004676873790033352890_" gradientUnits="userSpaceOnUse" x1="835.2126" y1="1027.1482" x2="817.8087" y2="823.6568">
				<stop  offset="0" style="stop-color:#FFFFFF"/>
				<stop  offset="1" style="stop-color:#FFFFFF;stop-opacity:0"/>
			</linearGradient>
			
				<path style="clip-path:url(#SVGID_00000164515872796516837730000013280343428486859452_);fill:url(#SVGID_00000016044127898662269940000004676873790033352890_);" d="
				M1049.4,643.4c0,0,0.1-0.1,0.1-0.1c-30.5,6.8-62.2,14.3-95.2,22.5c-39.8,10.7-78.9,21.5-117.3,32.3c-6.5,1.8-10.1,2.8-10.1,2.8v0
				c-32.2,9.1-64,18.3-94.8,27.3c0,0,0,0,0,0c-125,36.8-236.9,72.2-324,100.7c68.9,71.8,150.2,140.3,246.4,200.8
				c135.2-84.9,241-185.8,324-289.4c119-73.4,231.3-129.3,231.3-129.3C1161.7,618.5,1104.6,630.5,1049.4,643.4z"/>
			
				<linearGradient id="SVGID_00000080180582371784738840000015128917496905428125_" gradientUnits="userSpaceOnUse" x1="837.5886" y1="934.4957" x2="820.1847" y2="731.0044">
				<stop  offset="0" style="stop-color:#FFFFFF"/>
				<stop  offset="1" style="stop-color:#FFFFFF;stop-opacity:0"/>
			</linearGradient>
			
				<path style="clip-path:url(#SVGID_00000164515872796516837730000013280343428486859452_);fill:url(#SVGID_00000080180582371784738840000015128917496905428125_);" d="
				M1051.8,550.7c0,0,0.1-0.1,0.1-0.1c-30.5,6.8-62.2,14.3-95.2,22.5c-39.8,10.7-78.9,21.5-117.3,32.3c-6.5,1.8-10.1,2.8-10.1,2.8v0
				c-32.2,9.1-64,18.3-94.8,27.3c0,0,0,0,0,0c-125,36.8-236.9,72.2-324,100.7c68.9,71.8,150.2,140.3,246.4,200.8
				c135.2-84.9,241-185.8,324-289.4c119-73.4,231.3-129.3,231.3-129.3C1164.1,525.8,1107,537.8,1051.8,550.7z"/>
		</g>
	</g>
	<g>
		<g>
			<path class="st55" d="M1305.6,408.1c0-9,3.3-16.9,9.9-23.6c6.6-6.7,14.6-10.1,23.8-10.1c9.2,0,17.2,3.4,23.8,10.1
				c6.6,6.7,9.9,14.6,9.9,23.6c0,9.2-3.3,17.2-9.9,23.8c-6.6,6.6-14.6,9.9-23.8,9.9c-9.5,0-17.5-3.3-24-9.9
				C1308.8,425.3,1305.6,417.3,1305.6,408.1z M1308.6,508.2h60.7v327.6h-60.7V508.2z"/>
			<path class="st55" d="M1514.4,835.8h-61.5V341.4h61.5V835.8z"/>
			<path class="st55" d="M1658.7,835.8h-61.5V341.4h61.5V835.8z"/>
			<path class="st55" d="M1738.6,408.1c0-9,3.3-16.9,9.9-23.6c6.6-6.7,14.6-10.1,23.8-10.1c9.2,0,17.2,3.4,23.8,10.1
				c6.6,6.7,9.9,14.6,9.9,23.6c0,9.2-3.3,17.2-9.9,23.8c-6.6,6.6-14.6,9.9-23.8,9.9c-9.5,0-17.5-3.3-24-9.9
				C1741.8,425.3,1738.6,417.3,1738.6,408.1z M1741.6,508.2h60.7v327.6h-60.7V508.2z"/>
			<path class="st55" d="M1983.4,502.6c31.2,0,56.4,11.9,75.3,35.6c19,23.7,28.5,69.7,28.5,138c0,64-9.9,107.3-29.8,130.1
				c-19.9,22.7-44.3,34.1-73.3,34.1c-36.2,0-63.1-13.6-80.6-40.9c-17.5-27.2-26.2-69.1-26.2-125.6c0-69.2,10-115.1,30-137.6
				c20-22.5,44.9-33.7,74.6-33.7H1983.4z M2022,691.5c0-55.7-2.6-92.7-7.9-111c-5.2-18.2-15.7-27.4-31.5-27.4
				c-15,0-25.2,7.1-30.7,21.4c-5.5,14.2-8.2,38.4-8.2,72.4c0,66.2,3.1,106.7,9.2,121.5c6.1,14.7,16.3,22.1,30.6,22.1
				c15.2,0,25.5-7.4,30.7-22.3C2019.3,753.3,2022,727.7,2022,691.5z"/>
			<path class="st55" d="M2225.5,507.1v31.5h1.5c15.7-24,37-36,63.7-36c47.5,0,71.2,25.9,71.2,77.6v255.7h-60.7v-238
				c0-32.2-12.7-48.4-38.2-48.4c-11.8,0-21.1,4.3-27.9,12.9c-6.9,8.6-10.3,20.4-10.3,35.4v238h-61.5V507.1H2225.5z"/>
			<path class="st55" d="M2762.3,835.8h-172.8V358.2h64.5v424h108.3V835.8z"/>
			<path class="st55" d="M2831.7,408.1c0-9,3.3-16.9,9.9-23.6c6.6-6.7,14.6-10.1,23.8-10.1c9.2,0,17.2,3.4,23.8,10.1
				c6.6,6.7,9.9,14.6,9.9,23.6c0,9.2-3.3,17.2-9.9,23.8c-6.6,6.6-14.6,9.9-23.8,9.9c-9.5,0-17.5-3.3-24-9.9
				C2834.9,425.3,2831.7,417.3,2831.7,408.1z M2834.7,508.2h60.7v327.6h-60.7V508.2z"/>
			<path class="st55" d="M3038.3,507.1v31.5h1.5c15.7-24,37-36,63.7-36c47.5,0,71.2,25.9,71.2,77.6v255.7H3114v-238
				c0-32.2-12.7-48.4-38.2-48.4c-11.8,0-21.1,4.3-27.9,12.9c-6.9,8.6-10.3,20.4-10.3,35.4v238H2976V507.1H3038.3z"/>
			<path class="st55" d="M3477.6,835.8h-64.7l-91.2-175.1h-1.5v175.1h-61.5V342.1h61.5v306.3h1.5l80.7-140.2h64.4l-82.6,148.3
				L3477.6,835.8z"/>
		</g>
	</g>
	<g>
		<path class="st56" d="M1408.1,912.6c-5.3-4.5-11-7.9-16.9-10.2c-5.9-2.3-12.2-3.4-18.7-3.4c-12.7,0-22.9,4.1-30.9,12.2
			c-7.9,8.1-11.9,18.6-11.9,31.6c0,12.5,3.9,22.8,11.6,30.9c7.7,8.1,17.5,12.2,29.2,12.2c6.9,0,13.4-1.2,19.6-3.6s12.1-6.1,17.8-11
			v21.3c-5.1,3.6-10.6,6.4-16.5,8.1c-6,1.8-12.4,2.7-19.4,2.7c-8.9,0-17-1.5-24.6-4.3c-7.5-2.9-14.1-7.2-19.8-12.8
			c-5.6-5.5-10-12.1-13-19.6c-3-7.5-4.5-15.5-4.5-24c0-8.5,1.5-16.5,4.5-23.9c3-7.5,7.4-14,13.2-19.7c5.7-5.7,12.3-10,19.8-12.9
			c7.4-2.9,15.5-4.4,24.1-4.4c6.8,0,13.3,1,19.5,3s12.2,5,18,9L1408.1,912.6z"/>
		<path class="st56" d="M1424.4,962.8c0-5.5,1-10.7,3.1-15.5c2.1-4.9,5.1-9.2,9-13c3.8-3.7,8.3-6.6,13.3-8.6c5-2,10.3-3,15.7-3
			c5.6,0,11,1,15.9,3c5,2,9.5,5,13.4,8.9c4,3.8,7,8.2,9,13c2.1,4.9,3.1,9.9,3.1,15.3c0,5.5-1,10.7-3,15.6c-2,4.9-5,9.1-8.9,12.9
			c-4.1,4-8.7,6.9-13.7,9c-5,2-10.3,3-15.8,3c-5.4,0-10.6-1-15.7-3c-5-2-9.5-5-13.4-8.8c-4-3.9-7-8.3-9-13.1
			C1425.5,973.5,1424.4,968.3,1424.4,962.8z M1488.9,963c0-7-2.2-12.8-6.7-17.7c-4.5-4.8-10-7.2-16.4-7.2c-6.4,0-11.9,2.4-16.4,7.2
			c-4.5,4.8-6.8,10.7-6.8,17.7c0,7,2.3,12.9,6.8,17.7c4.5,4.8,10,7.2,16.4,7.2s11.9-2.4,16.4-7.2
			C1486.6,975.8,1488.9,969.9,1488.9,963z"/>
		<path class="st56" d="M1525.2,1000.2v-75h16.1v12.3c3.4-5.2,7.5-8.9,12.1-11.3c4.6-2.4,10.3-3.6,16.9-3.6c5.6,0,10.3,0.9,14.3,2.6
			c3.9,1.8,7,4.4,9.2,7.9c1.3,2.1,2.3,4.5,2.8,7.2c0.6,2.7,0.9,7.5,0.9,14.4v45.5h-17.3v-38.5c0-9.9-1.2-16.4-3.6-19.7
			c-2.4-3.2-6.7-4.9-12.8-4.9c-4,0-7.6,0.7-10.7,2.2c-3.1,1.5-5.6,3.6-7.4,6.2c-1.3,1.8-2.1,4.1-2.6,6.9c-0.5,2.8-0.8,7.3-0.8,13.5
			v34.2H1525.2z"/>
		<path class="st56" d="M1620.4,1000.2v-75h16.1v12.3c3.4-5.2,7.5-8.9,12.1-11.3c4.6-2.4,10.3-3.6,16.9-3.6c5.6,0,10.3,0.9,14.3,2.6
			c3.9,1.8,7,4.4,9.2,7.9c1.3,2.1,2.3,4.5,2.8,7.2c0.6,2.7,0.9,7.5,0.9,14.4v45.5h-17.3v-38.5c0-9.9-1.2-16.4-3.6-19.7
			c-2.4-3.2-6.7-4.9-12.8-4.9c-4,0-7.6,0.7-10.7,2.2c-3.1,1.5-5.6,3.6-7.4,6.2c-1.3,1.8-2.1,4.1-2.6,6.9c-0.5,2.8-0.8,7.3-0.8,13.5
			v34.2H1620.4z"/>
		<path class="st56" d="M1787.8,965.3h-59.9c0.4,7,2.5,12.5,6.2,16.4c3.7,3.9,8.7,5.9,14.9,5.9c5.5,0,10.1-1.2,13.8-3.5
			c3.7-2.3,6.9-6.1,9.6-11.2l14.5,8.1c-4.2,7.5-9.4,13.2-15.7,16.8s-13.5,5.5-21.9,5.5c-12,0-21.6-3.7-28.7-11
			c-7.1-7.3-10.7-17.1-10.7-29.3c0-11.8,3.7-21.4,11-29c7.4-7.6,16.8-11.3,28.3-11.3c12.1,0,21.5,3.5,28.2,10.4s10.1,16.6,10.1,29
			V965.3z M1770,953.7c-0.7-5.4-2.7-9.5-6.2-12.3c-3.4-2.8-8.1-4.2-14.1-4.2c-5.6,0-10.2,1.4-13.6,4.1c-3.4,2.7-5.8,6.9-7.2,12.4
			H1770z"/>
		<path class="st56" d="M1861.7,946.6c-2.6-2.9-5.7-5.1-9.2-6.6c-3.5-1.5-7.3-2.3-11.3-2.3c-7,0-12.6,2.3-16.8,6.8
			c-4.2,4.5-6.3,10.5-6.3,18c0,7.8,2.1,13.9,6.4,18.4c4.2,4.5,10.1,6.7,17.6,6.7c4.2,0,7.9-0.8,11.2-2.3c3.3-1.6,6.1-3.9,8.6-7.1
			v19.8c-3.2,1.8-6.6,3.1-10.2,4c-3.6,0.9-7.4,1.3-11.5,1.3c-11.8,0-21.3-3.7-28.7-11.2c-7.4-7.5-11.1-17.2-11.1-29.1
			c0-12.1,3.8-21.8,11.5-29.2c7.7-7.4,17.7-11.1,30.1-11.1c3.9,0,7.5,0.4,10.8,1.1c3.3,0.8,6.3,1.9,9.2,3.5V946.6z"/>
		<path class="st56" d="M1883.2,1000.2v-59.9h-13.1v-15h13.1v-28.4h17.2v28.4h13.1v15h-13.1v59.9H1883.2z"/>
		<path class="st56" d="M1926.8,892.8c0-2.9,1.1-5.4,3.2-7.5c2.1-2.1,4.7-3.2,7.6-3.2c3.1,0,5.6,1,7.6,3c2,2,3,4.6,3,7.6
			c0,3.1-1,5.6-3.1,7.7c-2.1,2.1-4.6,3.1-7.6,3.1c-3,0-5.5-1.1-7.6-3.2C1927.9,898.3,1926.8,895.8,1926.8,892.8z M1929.1,1000.2v-75
			h17.2v75H1929.1z"/>
		<path class="st56" d="M1970.8,1000.2v-75h16.1v12.3c3.4-5.2,7.5-8.9,12.1-11.3c4.6-2.4,10.3-3.6,16.9-3.6c5.6,0,10.3,0.9,14.3,2.6
			c3.9,1.8,7,4.4,9.2,7.9c1.3,2.1,2.3,4.5,2.8,7.2c0.6,2.7,0.9,7.5,0.9,14.4v45.5h-17.3v-38.5c0-9.9-1.2-16.4-3.6-19.7
			c-2.4-3.2-6.7-4.9-12.8-4.9c-4,0-7.6,0.7-10.7,2.2c-3.1,1.5-5.6,3.6-7.4,6.2c-1.3,1.8-2.1,4.1-2.6,6.9c-0.5,2.8-0.8,7.3-0.8,13.5
			v34.2H1970.8z"/>
		<path class="st56" d="M2136.5,995.6c0,14.7-2.9,25-8.8,31c-5.9,6-15.7,9-29.6,9c-10.3,0-18.6-2.2-24.8-6.5
			c-6.2-4.3-9.3-10.1-9.4-17.4l18.4-0.1c0.3,3.2,1.8,5.7,4.5,7.4c2.7,1.7,6.6,2.5,11.5,2.5c7.3,0,12.6-1.6,15.8-4.8
			c3.2-3.2,4.8-8.6,4.9-16.1l0.2-10c-3.1,4.3-6.6,7.5-10.7,9.6c-4.1,2.1-8.8,3.2-14,3.2c-10.6,0-18.9-3.6-25-10.9
			c-6.1-7.2-9.1-17.2-9.1-29.8c0-12,3.1-21.6,9.3-29c6.2-7.4,14.3-11,24.4-11c6.1,0,11.3,1.3,15.7,3.8c4.3,2.6,7.5,6.2,9.5,11v-12.3
			h17.2V995.6z M2119.8,962.5c0-7.8-1.8-13.8-5.4-18.1c-3.6-4.3-8.7-6.5-15.1-6.5s-11.6,2.2-15.3,6.7s-5.6,10.6-5.6,18.5
			c0,8,1.8,14.1,5.4,18.4c3.6,4.3,8.6,6.5,15.2,6.5c6.2,0,11.2-2.3,15.1-7C2117.9,976.3,2119.8,970.2,2119.8,962.5z"/>
		<path class="st56" d="M2210.5,1000.2V884.5h64.6v16h-45.8v29h45.8V946h-45.8v37.4h45.8v16.8H2210.5z"/>
		<path class="st56" d="M2296.1,1000.2V877.7h17.2v122.6H2296.1z"/>
		<path class="st56" d="M2410,965.3H2350c0.4,7,2.5,12.5,6.2,16.4c3.7,3.9,8.7,5.9,14.9,5.9c5.5,0,10.1-1.2,13.8-3.5
			c3.7-2.3,6.9-6.1,9.6-11.2l14.5,8.1c-4.2,7.5-9.4,13.2-15.7,16.8s-13.5,5.5-21.9,5.5c-12,0-21.6-3.7-28.7-11
			c-7.1-7.3-10.7-17.1-10.7-29.3c0-11.8,3.7-21.4,11-29c7.4-7.6,16.8-11.3,28.3-11.3c12.1,0,21.5,3.5,28.2,10.4s10.1,16.6,10.1,29
			V965.3z M2392.2,953.7c-0.7-5.4-2.7-9.5-6.2-12.3c-3.4-2.8-8.1-4.2-14.1-4.2c-5.6,0-10.2,1.4-13.6,4.1c-3.4,2.7-5.8,6.9-7.2,12.4
			H2392.2z"/>
		<path class="st56" d="M2483.8,946.6c-2.6-2.9-5.7-5.1-9.2-6.6c-3.5-1.5-7.3-2.3-11.3-2.3c-7,0-12.6,2.3-16.8,6.8
			c-4.2,4.5-6.3,10.5-6.3,18c0,7.8,2.1,13.9,6.4,18.4c4.2,4.5,10.1,6.7,17.6,6.7c4.2,0,7.9-0.8,11.2-2.3c3.3-1.6,6.1-3.9,8.6-7.1
			v19.8c-3.2,1.8-6.6,3.1-10.2,4c-3.6,0.9-7.4,1.3-11.5,1.3c-11.8,0-21.3-3.7-28.7-11.2c-7.4-7.5-11.1-17.2-11.1-29.1
			c0-12.1,3.8-21.8,11.5-29.2c7.7-7.4,17.7-11.1,30.1-11.1c3.9,0,7.5,0.4,10.8,1.1c3.3,0.8,6.3,1.9,9.2,3.5V946.6z"/>
		<path class="st56" d="M2505.4,1000.2v-59.9h-13.1v-15h13.1v-28.4h17.2v28.4h13.1v15h-13.1v59.9H2505.4z"/>
		<path class="st56" d="M2567.7,937.2c1.8-5,4.3-8.6,7.3-11c3-2.4,6.8-3.6,11.3-3.6c2.4,0,4.8,0.3,7.2,0.9c2.3,0.6,4.7,1.4,6.9,2.5
			l-6.2,14.5c-1.5-1.1-3.1-1.8-4.8-2.3c-1.7-0.5-3.6-0.8-5.7-0.8c-5.7,0-9.8,2.3-12.3,6.8c-2.5,4.6-3.7,12.2-3.7,23v32.9h-17.2
			v-75.1h17.2V937.2z"/>
		<path class="st56" d="M2604.6,962.8c0-5.5,1-10.7,3.1-15.5c2.1-4.9,5.1-9.2,9-13c3.8-3.7,8.3-6.6,13.3-8.6c5-2,10.3-3,15.7-3
			c5.6,0,11,1,15.9,3c5,2,9.5,5,13.4,8.9c4,3.8,7,8.2,9,13c2.1,4.9,3.1,9.9,3.1,15.3c0,5.5-1,10.7-3,15.6c-2,4.9-5,9.1-8.9,12.9
			c-4.1,4-8.7,6.9-13.7,9c-5,2-10.3,3-15.8,3c-5.4,0-10.6-1-15.7-3c-5-2-9.5-5-13.4-8.8c-4-3.9-7-8.3-9-13.1
			C2605.6,973.5,2604.6,968.3,2604.6,962.8z M2669,963c0-7-2.2-12.8-6.7-17.7c-4.5-4.8-10-7.2-16.4-7.2c-6.4,0-11.9,2.4-16.4,7.2
			c-4.5,4.8-6.8,10.7-6.8,17.7c0,7,2.3,12.9,6.8,17.7c4.5,4.8,10,7.2,16.4,7.2s11.9-2.4,16.4-7.2C2666.8,975.8,2669,969.9,2669,963z
			"/>
		<path class="st56" d="M2705.3,1000.2v-75h16.1v12.3c3.4-5.2,7.5-8.9,12.1-11.3c4.6-2.4,10.3-3.6,16.9-3.6c5.6,0,10.3,0.9,14.3,2.6
			c3.9,1.8,7,4.4,9.2,7.9c1.3,2.1,2.3,4.5,2.8,7.2c0.6,2.7,0.9,7.5,0.9,14.4v45.5h-17.3v-38.5c0-9.9-1.2-16.4-3.6-19.7
			c-2.4-3.2-6.7-4.9-12.8-4.9c-4,0-7.6,0.7-10.7,2.2c-3.1,1.5-5.6,3.6-7.4,6.2c-1.3,1.8-2.1,4.1-2.6,6.9c-0.5,2.8-0.8,7.3-0.8,13.5
			v34.2H2705.3z"/>
		<path class="st56" d="M2799,892.8c0-2.9,1.1-5.4,3.2-7.5c2.1-2.1,4.7-3.2,7.6-3.2c3.1,0,5.6,1,7.6,3c2,2,3,4.6,3,7.6
			c0,3.1-1,5.6-3.1,7.7c-2.1,2.1-4.6,3.1-7.6,3.1c-3,0-5.5-1.1-7.6-3.2C2800.1,898.3,2799,895.8,2799,892.8z M2801.3,1000.2v-75
			h17.2v75H2801.3z"/>
		<path class="st56" d="M2899,946.6c-2.6-2.9-5.7-5.1-9.2-6.6c-3.5-1.5-7.3-2.3-11.3-2.3c-7,0-12.6,2.3-16.8,6.8
			c-4.2,4.5-6.3,10.5-6.3,18c0,7.8,2.1,13.9,6.4,18.4c4.2,4.5,10.1,6.7,17.6,6.7c4.2,0,7.9-0.8,11.2-2.3c3.3-1.6,6.1-3.9,8.6-7.1
			v19.8c-3.2,1.8-6.6,3.1-10.2,4c-3.6,0.9-7.4,1.3-11.5,1.3c-11.8,0-21.3-3.7-28.7-11.2c-7.4-7.5-11.1-17.2-11.1-29.1
			c0-12.1,3.8-21.8,11.5-29.2c7.7-7.4,17.7-11.1,30.1-11.1c3.9,0,7.5,0.4,10.8,1.1c3.3,0.8,6.3,1.9,9.2,3.5V946.6z"/>
		<path class="st56" d="M2960.2,977.1l15-7c1.4,5.2,4,9.1,7.8,11.8c3.8,2.7,8.6,4.1,14.6,4.1c5.6,0,10-1.6,13.3-4.7
			c3.3-3.1,4.9-7.3,4.9-12.5c0-6.8-5.6-12.9-16.9-18.2c-1.6-0.8-2.8-1.4-3.6-1.7c-12.8-6.2-21.3-11.8-25.5-16.9
			c-4.2-5-6.4-11.2-6.4-18.5c0-9.4,3.2-17.1,9.6-22.9c6.4-5.9,14.8-8.8,25.2-8.8c8.5,0,15.7,1.6,21.4,4.9c5.7,3.3,9.7,8,11.9,14.2
			l-14.7,7.6c-2.3-3.6-4.9-6.3-7.6-8c-2.8-1.7-5.9-2.5-9.5-2.5c-5.1,0-9.1,1.3-12.1,4c-3,2.6-4.5,6.2-4.5,10.6
			c0,7,6.5,13.4,19.6,19.5c1,0.5,1.8,0.8,2.4,1.1c11.4,5.3,19.3,10.4,23.6,15.5c4.3,5,6.4,11.3,6.4,18.9c0,11-3.5,19.7-10.4,26.1
			c-6.9,6.5-16.2,9.7-28,9.7c-9.9,0-17.9-2.3-24.2-6.8C2966.3,992,2962.2,985.5,2960.2,977.1z"/>
		<path class="st56" d="M3048.8,962.8c0-5.5,1-10.7,3.1-15.5c2.1-4.9,5.1-9.2,9-13c3.8-3.7,8.3-6.6,13.3-8.6c5-2,10.3-3,15.7-3
			c5.6,0,11,1,15.9,3c5,2,9.5,5,13.4,8.9c4,3.8,7,8.2,9,13c2.1,4.9,3.1,9.9,3.1,15.3c0,5.5-1,10.7-3,15.6c-2,4.9-5,9.1-8.9,12.9
			c-4.1,4-8.7,6.9-13.7,9c-5,2-10.3,3-15.8,3c-5.4,0-10.6-1-15.7-3c-5-2-9.5-5-13.4-8.8c-4-3.9-7-8.3-9-13.1
			C3049.8,973.5,3048.8,968.3,3048.8,962.8z M3113.2,963c0-7-2.2-12.8-6.7-17.7c-4.5-4.8-10-7.2-16.4-7.2c-6.4,0-11.9,2.4-16.4,7.2
			c-4.5,4.8-6.8,10.7-6.8,17.7c0,7,2.3,12.9,6.8,17.7c4.5,4.8,10,7.2,16.4,7.2s11.9-2.4,16.4-7.2
			C3111,975.8,3113.2,969.9,3113.2,963z"/>
		<path class="st56" d="M3205.5,946.6c-2.6-2.9-5.7-5.1-9.2-6.6c-3.5-1.5-7.3-2.3-11.3-2.3c-7,0-12.6,2.3-16.8,6.8
			c-4.2,4.5-6.3,10.5-6.3,18c0,7.8,2.1,13.9,6.4,18.4c4.2,4.5,10.1,6.7,17.6,6.7c4.2,0,7.9-0.8,11.2-2.3c3.3-1.6,6.1-3.9,8.6-7.1
			v19.8c-3.2,1.8-6.6,3.1-10.2,4c-3.6,0.9-7.4,1.3-11.5,1.3c-11.8,0-21.3-3.7-28.7-11.2c-7.4-7.5-11.1-17.2-11.1-29.1
			c0-12.1,3.8-21.8,11.5-29.2c7.7-7.4,17.7-11.1,30.1-11.1c3.9,0,7.5,0.4,10.8,1.1c3.3,0.8,6.3,1.9,9.2,3.5V946.6z"/>
		<path class="st56" d="M3221.6,892.8c0-2.9,1.1-5.4,3.2-7.5c2.1-2.1,4.7-3.2,7.6-3.2c3.1,0,5.6,1,7.6,3c2,2,3,4.6,3,7.6
			c0,3.1-1,5.6-3.1,7.7c-2.1,2.1-4.6,3.1-7.6,3.1c-3,0-5.5-1.1-7.6-3.2C3222.6,898.3,3221.6,895.8,3221.6,892.8z M3223.8,1000.2v-75
			h17.2v75H3223.8z"/>
		<path class="st56" d="M3337.7,965.3h-59.9c0.4,7,2.5,12.5,6.2,16.4c3.7,3.9,8.7,5.9,14.9,5.9c5.5,0,10.1-1.2,13.8-3.5
			c3.7-2.3,6.9-6.1,9.6-11.2l14.5,8.1c-4.2,7.5-9.4,13.2-15.7,16.8s-13.5,5.5-21.9,5.5c-12,0-21.6-3.7-28.7-11
			c-7.1-7.3-10.7-17.1-10.7-29.3c0-11.8,3.7-21.4,11-29c7.4-7.6,16.8-11.3,28.3-11.3c12.1,0,21.5,3.5,28.2,10.4s10.1,16.6,10.1,29
			V965.3z M3319.9,953.7c-0.7-5.4-2.7-9.5-6.2-12.3c-3.4-2.8-8.1-4.2-14.1-4.2c-5.6,0-10.2,1.4-13.6,4.1c-3.4,2.7-5.8,6.9-7.2,12.4
			H3319.9z"/>
		<path class="st56" d="M3359.6,1000.2v-59.9h-13.1v-15h13.1v-28.4h17.2v28.4h13.1v15h-13.1v59.9H3359.6z"/>
		<path class="st56" d="M3417.6,1035.5H3400l20.6-41.8l-27.5-68.5h19l13.8,38.8c0.8,2.4,1.5,4.8,2.1,7.2c0.6,2.5,1.1,4.9,1.5,7.5
			c0.7-2.6,2.3-6.8,4.9-12.6l0.4-0.9l18.5-40h18.6L3417.6,1035.5z"/>
	</g>
</g>
</svg>
